<svg width="1440" height="357" viewBox="0 0 1440 357" fill="none" xmlns="http://www.w3.org/2000/svg">
<g filter="url(#filter0_f_1_368)">
<path d="M1881.05 224.302C1881.05 701.063 1689.93 1283.5 1123.42 1283.5C494.171 880.69 -162.297 1564.32 -162.297 1087.56C-162.297 610.794 80.0942 -753 646.605 -753C1213.12 -753 1881.05 -252.46 1881.05 224.302Z" fill="#211F97"/>
</g>
<g filter="url(#filter1_f_1_368)">
<path d="M1318.04 -278.913L1902.83 314C1902.83 314 1515.78 736.073 1107.99 1022.08C604.145 1375.47 177.052 1268.88 177.052 1268.88L702.861 571.152L1318.04 -278.913Z" fill="url(#paint0_linear_1_368)"/>
</g>
<path d="M1318.04 -278.913L1925.97 -96.7131L1902.83 314C1902.83 314 1515.78 736.073 1107.99 1022.08C604.145 1375.47 100.834 1430.97 100.834 1430.97L702.861 571.152L1318.04 -278.913Z" fill="url(#paint1_linear_1_368)"/>
<g filter="url(#filter2_f_1_368)">
<path d="M986.684 -195.858C958.557 -2.68831 665.939 487.669 351.993 487.669C168.432 487.669 -175 306.235 -175 40.9981C-175 -224.239 38.0473 104.378 351.993 104.378C665.939 104.378 986.684 -274.653 986.684 -195.858Z" fill="#1592E8" fill-opacity="0.6"/>
</g>
<defs>
<filter id="filter0_f_1_368" x="-462.297" y="-1053" width="2643.35" height="2636.5" filterUnits="userSpaceOnUse" color-interpolation-filters="sRGB">
<feFlood flood-opacity="0" result="BackgroundImageFix"/>
<feBlend mode="normal" in="SourceGraphic" in2="BackgroundImageFix" result="shape"/>
<feGaussianBlur stdDeviation="150" result="effect1_foregroundBlur_1_368"/>
</filter>
<filter id="filter1_f_1_368" x="-122.948" y="-578.913" width="2325.78" height="2162.88" filterUnits="userSpaceOnUse" color-interpolation-filters="sRGB">
<feFlood flood-opacity="0" result="BackgroundImageFix"/>
<feBlend mode="normal" in="SourceGraphic" in2="BackgroundImageFix" result="shape"/>
<feGaussianBlur stdDeviation="150" result="effect1_foregroundBlur_1_368"/>
</filter>
<filter id="filter2_f_1_368" x="-375" y="-406.637" width="1561.68" height="1094.31" filterUnits="userSpaceOnUse" color-interpolation-filters="sRGB">
<feFlood flood-opacity="0" result="BackgroundImageFix"/>
<feBlend mode="normal" in="SourceGraphic" in2="BackgroundImageFix" result="shape"/>
<feGaussianBlur stdDeviation="100" result="effect1_foregroundBlur_1_368"/>
</filter>
<linearGradient id="paint0_linear_1_368" x1="1813.91" y1="340.203" x2="280.003" y2="725.589" gradientUnits="userSpaceOnUse">
<stop stop-color="#F080DD"/>
<stop offset="1" stop-color="#B3E8FF"/>
</linearGradient>
<linearGradient id="paint1_linear_1_368" x1="1719.55" y1="197.002" x2="998.632" y2="899.159" gradientUnits="userSpaceOnUse">
<stop stop-color="#F080DD"/>
<stop offset="1" stop-color="#B3E8FF" stop-opacity="0"/>
</linearGradient>
</defs>
</svg>
