<svg width="42" height="42" viewBox="0 0 42 42" fill="none" xmlns="http://www.w3.org/2000/svg">
<circle cx="21" cy="21" r="20.5" fill="white" stroke="#D6DDED"/>
<path d="M9.69662 17.4806C9.15405 16.4092 8.88276 15.8735 9.04706 15.3721C9.21136 14.8707 9.74709 14.5994 10.8185 14.0568L19.91 9.45294C20.9815 8.91037 21.5172 8.63909 22.0186 8.80339C22.52 8.96769 22.7913 9.50341 23.3339 10.5749C23.8764 11.6463 24.1477 12.182 23.9834 12.6834C23.8191 13.1848 23.2834 13.4561 22.212 13.9987L13.1205 18.6026C12.049 19.1451 11.5133 19.4164 11.0119 19.2521C10.5105 19.0878 10.2392 18.5521 9.69662 17.4806Z" stroke="#111827"/>
<path d="M19.7314 30.2476C19.2546 29.3062 19.6314 28.1565 20.5728 27.6797L25.1186 25.3778C26.06 24.9011 27.2097 25.2778 27.6865 26.2193C28.1632 27.1607 27.7865 28.3104 26.845 28.7871L22.2993 31.0891C21.3578 31.5658 20.2081 31.1891 19.7314 30.2476Z" stroke="#111827"/>
<path d="M25.4062 25.9459L19.6514 14.5815" stroke="#111827"/>
<path d="M20.8606 28.2478L15.3936 17.4517" stroke="#111827"/>
<path d="M29.9229 17.9467L32.1958 16.7957M11.7405 27.1555L9.46759 28.3065M30.4791 21.6637L31.6855 22.0523M14.407 29.8026L14.0062 31.0049M27.2564 15.2996L27.6572 14.0972M11.1842 23.4384L9.97784 23.0499" stroke="#111827" stroke-linecap="round"/>
</svg>
