<svg width="147" height="19" viewBox="0 0 147 19" fill="none" xmlns="http://www.w3.org/2000/svg">
<path d="M0.119386 0.545454H4.67052L9.47734 12.2727H9.68189L14.4887 0.545454H19.0398V18H15.4603V6.6392H15.3154L10.7984 17.9148H8.36086L3.84382 6.59659H3.69893V18H0.119386V0.545454ZM25.1707 0.545454V18H21.4803V0.545454H25.1707ZM27.6069 0.545454H32.158L36.9648 12.2727H37.1694L41.9762 0.545454H46.5273V18H42.9478V6.6392H42.8029L38.2859 17.9148H35.8484L31.3313 6.59659H31.1864V18H27.6069V0.545454ZM52.6582 0.545454V18H48.9678V0.545454H52.6582ZM55.0944 0.545454H59.6455L64.4523 12.2727H64.6569L69.4637 0.545454H74.0148V18H70.4353V6.6392H70.2904L65.7734 17.9148H63.3359L58.8188 6.59659H58.6739V18H55.0944V0.545454ZM80.1457 0.545454V18H76.4553V0.545454H80.1457ZM92.0506 5.56534C91.9825 4.87784 91.6898 4.34375 91.1728 3.96307C90.6558 3.58239 89.954 3.39204 89.0677 3.39204C88.4654 3.39204 87.9569 3.47727 87.5421 3.64773C87.1273 3.8125 86.8092 4.04261 86.5876 4.33807C86.3717 4.63352 86.2637 4.96875 86.2637 5.34375C86.2523 5.65625 86.3177 5.92898 86.4597 6.16193C86.6075 6.39489 86.8092 6.59659 87.0648 6.76705C87.3205 6.93182 87.616 7.0767 87.9512 7.2017C88.2864 7.32102 88.6444 7.4233 89.0251 7.50852L90.5933 7.88352C91.3546 8.05398 92.0535 8.28125 92.6898 8.56534C93.3262 8.84943 93.8773 9.19886 94.3433 9.61364C94.8092 10.0284 95.17 10.517 95.4256 11.0795C95.687 11.642 95.8205 12.2869 95.8262 13.0142C95.8205 14.0824 95.5478 15.0085 95.008 15.7926C94.4739 16.571 93.7012 17.1761 92.6898 17.608C91.6842 18.0341 90.4711 18.2472 89.0506 18.2472C87.6415 18.2472 86.4143 18.0312 85.3688 17.5994C84.329 17.1676 83.5165 16.5284 82.9313 15.6818C82.3518 14.8295 82.0478 13.7756 82.0194 12.5199H85.5904C85.6302 13.1051 85.7978 13.5937 86.0933 13.9858C86.3944 14.3722 86.795 14.6648 87.295 14.8636C87.8006 15.0568 88.3717 15.1534 89.008 15.1534C89.633 15.1534 90.1756 15.0625 90.6359 14.8807C91.1018 14.6989 91.4626 14.446 91.7183 14.1222C91.9739 13.7983 92.1018 13.4261 92.1018 13.0057C92.1018 12.6136 91.9853 12.2841 91.7523 12.017C91.5251 11.75 91.1898 11.5227 90.7467 11.3352C90.3092 11.1477 89.7722 10.9773 89.1359 10.8239L87.2353 10.3466C85.7637 9.98864 84.6018 9.42898 83.7495 8.66761C82.8972 7.90625 82.4739 6.88068 82.4796 5.59091C82.4739 4.53409 82.7552 3.6108 83.3234 2.82102C83.8972 2.03125 84.6842 1.41477 85.6842 0.971591C86.6842 0.528409 87.8205 0.306818 89.0933 0.306818C90.3887 0.306818 91.5194 0.528409 92.4853 0.971591C93.4569 1.41477 94.2126 2.03125 94.7523 2.82102C95.2921 3.6108 95.5705 4.52557 95.5876 5.56534H92.0506ZM97.7085 18V0.545454H101.399V7.74716H108.89V0.545454H112.572V18H108.89V10.7898H101.399V18H97.7085ZM115.015 18V0.545454H118.705V8.24148H118.935L125.216 0.545454H129.64L123.162 8.3608L129.716 18H125.302L120.52 10.8239L118.705 13.0398V18H115.015ZM133.97 18H130.016L136.041 0.545454H140.797L146.814 18H142.859L138.487 4.53409H138.351L133.97 18ZM133.723 11.1392H143.064V14.0199H133.723V11.1392Z" fill="#111827"/>
</svg>
