<svg width="42" height="42" viewBox="0 0 42 42" fill="none" xmlns="http://www.w3.org/2000/svg">
<circle cx="21" cy="21" r="20.5" fill="white" stroke="#D6DDED"/>
<path d="M11 21L14 21" stroke="#111827" stroke-linecap="round"/>
<path d="M28 21L31 21" stroke="#111827" stroke-linecap="round"/>
<path d="M21 31L21 28" stroke="#111827" stroke-linecap="round"/>
<path d="M21 14L21 11" stroke="#111827" stroke-linecap="round"/>
<path d="M19 21H21H23" stroke="#111827" stroke-linecap="round" stroke-linejoin="round"/>
<path d="M21 23L21 21L21 19" stroke="#111827" stroke-linecap="round" stroke-linejoin="round"/>
<path d="M16 12.3378C17.4709 11.487 19.1786 11 21 11C26.5228 11 31 15.4772 31 21C31 26.5228 26.5228 31 21 31C15.4772 31 11 26.5228 11 21C11 19.1786 11.487 17.4709 12.3378 16" stroke="#111827" stroke-linecap="round"/>
</svg>
