<svg width="143" height="88" viewBox="0 0 143 88" fill="none" xmlns="http://www.w3.org/2000/svg">
<mask id="path-1-inside-1_1_74" fill="white">
<path fill-rule="evenodd" clip-rule="evenodd" d="M72 24C85.2548 24 96 13.2548 96 0H133C138.523 0 143 4.47715 143 10V78C143 83.5229 138.523 88 133 88H10C4.47715 88 0 83.5229 0 78V10C0 4.47715 4.47715 0 10 0H48C48 13.2548 58.7452 24 72 24Z"/>
</mask>
<path fill-rule="evenodd" clip-rule="evenodd" d="M72 24C85.2548 24 96 13.2548 96 0H133C138.523 0 143 4.47715 143 10V78C143 83.5229 138.523 88 133 88H10C4.47715 88 0 83.5229 0 78V10C0 4.47715 4.47715 0 10 0H48C48 13.2548 58.7452 24 72 24Z" fill="white"/>
<path d="M96 0V-1H95V0H96ZM48 0H49V-1H48V0ZM95 0C95 12.7025 84.7026 23 72 23V25C85.8071 25 97 13.8071 97 0H95ZM96 1H133V-1H96V1ZM133 1C137.971 1 142 5.02944 142 10H144C144 3.92487 139.075 -1 133 -1V1ZM142 10V78H144V10H142ZM142 78C142 82.9706 137.971 87 133 87V89C139.075 89 144 84.0751 144 78H142ZM133 87H10V89H133V87ZM10 87C5.02944 87 1 82.9706 1 78H-1C-1 84.0751 3.92487 89 10 89V87ZM1 78V10H-1V78H1ZM1 10C1 5.02944 5.02944 1 10 1V-1C3.92487 -1 -1 3.92487 -1 10H1ZM10 1H48V-1H10V1ZM72 23C59.2975 23 49 12.7025 49 0H47C47 13.8071 58.1929 25 72 25V23Z" fill="#D6DDED" mask="url(#path-1-inside-1_1_74)"/>
</svg>
