<svg width="1440" height="2032" viewBox="0 0 1440 2032" fill="none" xmlns="http://www.w3.org/2000/svg">
<g filter="url(#filter0_f_1_7)">
<path d="M2039.68 802.977L1058.39 1559.81L636.032 1831.59L160.109 1512.89L680.928 1309.97L2039.68 802.977Z" fill="url(#paint0_linear_1_7)"/>
</g>
<g filter="url(#filter1_f_1_7)">
<path d="M1468.05 220.302C1468.05 697.063 1276.93 1279.5 710.418 1279.5C81.1706 876.69 -575.297 1560.32 -575.297 1083.56C-575.297 606.794 -332.906 -757 233.605 -757C800.116 -757 1468.05 -256.46 1468.05 220.302Z" fill="#211F97"/>
</g>
<g filter="url(#filter2_f_1_7)">
<path d="M905.044 -282.914L1489.83 310C1489.83 310 1102.78 732.073 694.993 1018.08C191.145 1371.47 -235.948 1264.88 -235.948 1264.88L289.861 567.152L905.044 -282.914Z" fill="url(#paint1_linear_1_7)"/>
</g>
<path d="M905.044 -282.914L1512.97 -100.713L1489.83 309.999C1489.83 309.999 1102.78 732.073 694.993 1018.08C191.145 1371.47 -312.166 1426.97 -312.166 1426.97L289.861 567.152L905.044 -282.914Z" fill="url(#paint2_linear_1_7)"/>
<g filter="url(#filter3_f_1_7)">
<path d="M573.684 -199.858C545.557 -6.68819 252.939 483.669 -61.007 483.669C-244.568 483.669 -588 302.235 -588 36.9982C-588 -228.239 -374.953 100.378 -61.007 100.378C252.939 100.378 573.684 -278.653 573.684 -199.858Z" fill="#1592E8" fill-opacity="0.6"/>
</g>
<defs>
<filter id="filter0_f_1_7" x="-39.8906" y="602.977" width="2279.58" height="1428.61" filterUnits="userSpaceOnUse" color-interpolation-filters="sRGB">
<feFlood flood-opacity="0" result="BackgroundImageFix"/>
<feBlend mode="normal" in="SourceGraphic" in2="BackgroundImageFix" result="shape"/>
<feGaussianBlur stdDeviation="100" result="effect1_foregroundBlur_1_7"/>
</filter>
<filter id="filter1_f_1_7" x="-875.297" y="-1057" width="2643.35" height="2636.5" filterUnits="userSpaceOnUse" color-interpolation-filters="sRGB">
<feFlood flood-opacity="0" result="BackgroundImageFix"/>
<feBlend mode="normal" in="SourceGraphic" in2="BackgroundImageFix" result="shape"/>
<feGaussianBlur stdDeviation="150" result="effect1_foregroundBlur_1_7"/>
</filter>
<filter id="filter2_f_1_7" x="-535.948" y="-582.914" width="2325.78" height="2162.88" filterUnits="userSpaceOnUse" color-interpolation-filters="sRGB">
<feFlood flood-opacity="0" result="BackgroundImageFix"/>
<feBlend mode="normal" in="SourceGraphic" in2="BackgroundImageFix" result="shape"/>
<feGaussianBlur stdDeviation="150" result="effect1_foregroundBlur_1_7"/>
</filter>
<filter id="filter3_f_1_7" x="-788" y="-410.637" width="1561.68" height="1094.31" filterUnits="userSpaceOnUse" color-interpolation-filters="sRGB">
<feFlood flood-opacity="0" result="BackgroundImageFix"/>
<feBlend mode="normal" in="SourceGraphic" in2="BackgroundImageFix" result="shape"/>
<feGaussianBlur stdDeviation="100" result="effect1_foregroundBlur_1_7"/>
</filter>
<linearGradient id="paint0_linear_1_7" x1="495.774" y1="1868.01" x2="2089.7" y2="1416.33" gradientUnits="userSpaceOnUse">
<stop stop-color="#F080DD"/>
<stop offset="1" stop-color="#B3E8FF"/>
</linearGradient>
<linearGradient id="paint1_linear_1_7" x1="1400.91" y1="336.203" x2="-132.997" y2="721.588" gradientUnits="userSpaceOnUse">
<stop stop-color="#F080DD"/>
<stop offset="1" stop-color="#B3E8FF"/>
</linearGradient>
<linearGradient id="paint2_linear_1_7" x1="1306.55" y1="193.001" x2="585.632" y2="895.159" gradientUnits="userSpaceOnUse">
<stop stop-color="#F080DD"/>
<stop offset="1" stop-color="#B3E8FF" stop-opacity="0"/>
</linearGradient>
</defs>
</svg>
