<svg width="42" height="42" viewBox="0 0 42 42" fill="none" xmlns="http://www.w3.org/2000/svg">
<circle cx="21" cy="21" r="20.5" fill="white" stroke="#D6DDED"/>
<circle cx="21" cy="21" r="3" stroke="#111827"/>
<path d="M12 21L18 21" stroke="#111827" stroke-linecap="round"/>
<path d="M24 21L30 21" stroke="#111827" stroke-linecap="round"/>
<path d="M16.5 28.7944L19.5 23.5983" stroke="#111827" stroke-linecap="round"/>
<path d="M22.5 18.4021L25.5 13.2059" stroke="#111827" stroke-linecap="round"/>
<path d="M25.5 28.7944L22.5 23.5983" stroke="#111827" stroke-linecap="round"/>
<path d="M19.5 18.4021L16.5 13.2059" stroke="#111827" stroke-linecap="round"/>
<path d="M13.5 8.00673C15.7063 6.73046 18.2678 6 21 6C29.2843 6 36 12.7157 36 21C36 29.2843 29.2843 36 21 36C12.7157 36 6 29.2843 6 21C6 18.2678 6.73046 15.7063 8.00673 13.5" stroke="#111827" stroke-linecap="round"/>
<path d="M25.5 28.796C24.1762 29.5617 22.6393 30 21 30C16.0294 30 12 25.9706 12 21C12 16.0294 16.0294 12 21 12C25.9706 12 30 16.0294 30 21C30 22.6393 29.5617 24.1762 28.796 25.5" stroke="#111827" stroke-linecap="round"/>
</svg>
